<svg width="68" height="68" viewBox="0 0 68 68" fill="none" xmlns="http://www.w3.org/2000/svg">
<path d="M0 0.5H67.08V67.58H0V0.5Z" fill="white" fill-opacity="0.01"/>
<path fill-rule="evenodd" clip-rule="evenodd" d="M33.54 6.09C18.1036 6.09 5.59 18.6036 5.59 34.04C5.59 49.4764 18.1036 61.99 33.54 61.99C48.9764 61.99 61.49 49.4764 61.49 34.04C61.49 18.6036 48.9764 6.09 33.54 6.09ZM0 34.04C0 15.5164 15.0164 0.5 33.54 0.5C52.0636 0.5 67.08 15.5164 67.08 34.04C67.08 52.5636 52.0636 67.58 33.54 67.58C15.0164 67.58 0 52.5636 0 34.04Z" fill="white"/>
<path fill-rule="evenodd" clip-rule="evenodd" d="M26.8082 64.0464C26.538 63.6975 26.538 60.5886 26.8082 54.7202C23.9129 54.8201 22.0836 54.6192 21.3203 54.1173C20.1754 53.3645 19.0292 51.0428 18.0122 49.4066C16.9953 47.7704 14.738 47.5118 13.8266 47.146C12.9151 46.7802 12.6863 45.2892 16.3382 46.4168C19.9901 47.5445 20.1682 50.6152 21.3203 51.3332C22.4724 52.0513 25.2266 51.7371 26.4751 51.1619C27.7235 50.5867 27.6316 48.445 27.8543 47.5966C28.1357 46.8046 27.1436 46.629 27.1218 46.6225C25.9031 46.6225 19.5003 45.2301 17.7415 39.0298C15.9829 32.8296 18.2484 28.777 19.457 27.0349C20.2626 25.8734 20.1914 23.3982 19.2432 19.6089C22.686 19.1689 25.3428 20.2525 27.2138 22.86C27.2156 22.875 29.6666 21.4025 33.54 21.4025C37.4136 21.4025 38.7878 22.6019 39.8483 22.86C40.9087 23.1181 41.757 18.2958 48.3068 19.6089C46.9394 22.2965 45.7941 25.655 46.6683 27.0349C47.5423 28.4148 50.9727 32.8027 48.8655 39.0298C47.4606 43.1813 44.6992 45.7122 40.5809 46.6225C40.1085 46.7732 39.8725 47.0163 39.8725 47.3517C39.8725 47.855 40.5109 47.9099 41.4307 50.2672C42.0438 51.8387 42.0881 56.3272 41.5635 63.7325C40.2346 64.0709 39.2007 64.298 38.4619 64.4141C37.1518 64.62 35.7295 64.7354 34.3318 64.78C32.9343 64.8246 32.449 64.8195 30.5169 64.6397C29.2289 64.5198 27.9926 64.322 26.8082 64.0464Z" fill="white"/>
</svg>
